<?xml version="1.0" encoding="UTF-8"?>
<svg width="400px" height="400px" viewBox="0 0 400 400" version="1.1" xmlns="http://www.w3.org/2000/svg" xmlns:xlink="http://www.w3.org/1999/xlink">
    <title>starred-empty</title>
    <defs>
        <rect id="path-1" x="0" y="0" width="399.21748" height="398.917439"></rect>
        <linearGradient x1="-0.011462369%" y1="50.0132718%" x2="99.9885376%" y2="50.0132718%" id="linearGradient-3">
            <stop stop-color="#3DC7DC" offset="0%"></stop>
            <stop stop-color="#9CE3EE" offset="100%"></stop>
        </linearGradient>
        <linearGradient x1="0%" y1="49.9645563%" x2="100%" y2="49.9645563%" id="linearGradient-4">
            <stop stop-color="#1DB9D4" offset="0%"></stop>
            <stop stop-color="#6BD5E5" offset="100%"></stop>
        </linearGradient>
        <linearGradient x1="0.00532282962%" y1="49.9575777%" x2="100%" y2="49.9575777%" id="linearGradient-5">
            <stop stop-color="#1DB9D4" offset="0%"></stop>
            <stop stop-color="#6BD5E5" offset="100%"></stop>
        </linearGradient>
        <linearGradient x1="54.8326035%" y1="18.4801248%" x2="50%" y2="100%" id="linearGradient-6">
            <stop stop-color="#E5E8EC" stop-opacity="0.1" offset="0%"></stop>
            <stop stop-color="#E0E3E8" stop-opacity="0.31" offset="16.9049403%"></stop>
            <stop stop-color="#DBDFE5" stop-opacity="0.49" offset="27.2993439%"></stop>
            <stop stop-color="#D8DCE2" stop-opacity="0.65" offset="34.9661926%"></stop>
            <stop stop-color="#D4D9DF" stop-opacity="0.78" offset="45.6835697%"></stop>
            <stop stop-color="#D2D7DD" stop-opacity="0.88" offset="55.5923682%"></stop>
            <stop stop-color="#D2D7DD" stop-opacity="0.858210242" offset="63.1908493%"></stop>
            <stop stop-color="#D0D5DC" stop-opacity="0.95" offset="75.5538926%"></stop>
            <stop stop-color="#CFD4DB" stop-opacity="0.99" offset="84.7490458%"></stop>
            <stop stop-color="#CFD4DB" offset="100%"></stop>
        </linearGradient>
        <linearGradient x1="-7.13575431e-14%" y1="50%" x2="100.012553%" y2="50%" id="linearGradient-7">
            <stop stop-color="#E5E8EC" stop-opacity="0.1" offset="0%"></stop>
            <stop stop-color="#A5ADBA" offset="100%"></stop>
        </linearGradient>
        <linearGradient x1="-0.163040073%" y1="50.1010379%" x2="100.048589%" y2="50.1010379%" id="linearGradient-8">
            <stop stop-color="#3384FF" offset="0%"></stop>
            <stop stop-color="#0057D8" offset="100%"></stop>
        </linearGradient>
        <linearGradient x1="7.93922195%" y1="6.06150578%" x2="86.1303083%" y2="94.4168665%" id="linearGradient-9">
            <stop stop-color="#66A3FF" offset="0%"></stop>
            <stop stop-color="#0065FF" offset="100%"></stop>
        </linearGradient>
        <linearGradient x1="47.7853273%" y1="0.338559581%" x2="52.2164674%" y2="99.6489323%" id="linearGradient-10">
            <stop stop-color="#FF991F" offset="0%"></stop>
            <stop stop-color="#FFC400" offset="100%"></stop>
        </linearGradient>
        <linearGradient x1="-0.183876045%" y1="50.1248893%" x2="100%" y2="50.1248893%" id="linearGradient-11">
            <stop stop-color="#0065FF" offset="0%"></stop>
            <stop stop-color="#66A3FF" offset="100%"></stop>
        </linearGradient>
    </defs>
    <g id="starred-empty" stroke="none" stroke-width="1" fill="none" fill-rule="evenodd">
        <g id="Jira-Starred">
            <mask id="mask-2" fill="white">
                <use xlink:href="#path-1"></use>
            </mask>
            <use id="Mask" fill="#D8D8D8" opacity="0" xlink:href="#path-1"></use>
            <g id="EmptyStarred" mask="url(#mask-2)">
                <g transform="translate(1.666667, 38.333333)">
                    <path d="M210.652648,49.5082361 L203.221115,59.1158183 L195.558659,83.1767281 C194.669441,83.014086 193.839313,83.7972137 193.146141,83.2173791 C193.372479,78.558736 193.228225,73.6257238 193.816237,69.4576043 C194.48021,64.6301158 196.384493,58.7359459 198.119933,54.182089 C201.728123,50.504454 201.394665,47.2433487 204.921551,44.4317408 C206.072873,43.279292 207.836346,42.9997205 209.288101,43.7394914 C210.313036,44.2509721 211.057876,45.1906859 211.321403,46.3047699 C211.58493,47.4188538 211.339951,48.5923489 210.652648,49.5082361 Z" id="Shape-Copy" stroke="none" fill="#CE9E79" fill-rule="nonzero" transform="translate(202.285576, 63.382053) rotate(-120.000000) translate(-202.285576, -63.382053) "></path>
                    <path d="M315.210046,45.5502385 C305.458783,46.4172983 299.178368,52.4622435 297.320485,54.4026395 C295.167377,53.2288709 292.7545,52.6122829 290.301815,52.6090843 C281.782143,52.7314516 276.771806,61.2517128 270.606852,66.7023025 C265.13117,71.5445519 255.750784,76.6070624 238.767422,76.6630017 L391.390258,76.7958577 C376.509698,76.8622856 369.046675,72.5269866 364.970528,68.2930775 C361.86356,65.0660767 359.487848,60.6014179 353.907201,58.8113589 C349.498664,57.3849057 345.209088,58.29392 342.238574,59.3043244 C335.947663,49.976439 325.629588,44.6237431 315.210046,45.5502385 Z" id="Shape" stroke="none" fill="url(#linearGradient-3)" fill-rule="nonzero" opacity="0.8"></path>
                    <path d="M111.94502,72.9187815 C108.745365,71.5959054 105.091921,71.9911453 102.249739,73.9676442 C100.400161,75.2981835 99.0285611,77.1885395 98.3380372,79.3587984 C96.8411493,78.4999938 95.0971958,78.1734023 93.3906794,78.432303 C89.4684814,79.0825979 87.7610482,82.7501211 87.6175958,83.0682761 L129.435714,83.0682761 C126.500189,83.0193291 123.536672,82.431966 120.958028,80.9705507 C118.043496,79.3378211 116.682448,76.4254791 114.222764,74.3277537 C113.539155,73.745748 112.771177,73.2706905 111.94502,72.9187815 Z" id="Shape" stroke="none" fill="url(#linearGradient-4)" fill-rule="nonzero" opacity="0.6"></path>
                    <path d="M243.770761,1.69068116 C238.741969,-0.391307768 232.998426,0.227938464 228.52982,3.33389936 C225.622713,5.4255217 223.467128,8.39718449 222.382361,11.8087098 C220.029348,10.4577215 217.287477,9.94377605 214.604443,10.3507907 C208.439489,11.3716837 205.75588,17.1369322 205.528455,17.6473787 L271.261135,17.6473787 C266.646167,17.5739583 261.989213,16.647463 257.934059,14.3749272 C253.350581,11.8087098 251.21279,7.24266094 247.350073,3.92825488 C246.277359,3.00543089 245.070463,2.25095097 243.770761,1.69068116 L243.770761,1.69068116 Z" id="Shape" stroke="none" fill="url(#linearGradient-5)" fill-rule="nonzero" opacity="0.6" transform="translate(238.394795, 9.060982) scale(-1, 1) translate(-238.394795, -9.060982) "></path>
                    <path d="M103.907397,400.594925 C84.0158897,377.536425 61.8276203,298.243293 61.8276203,265.373006 C61.8276203,232.50272 72.904851,211.06308 96.14487,211.06308 C119.384889,211.06308 141.180768,226.591844 144.650896,271.87779 C148.121024,317.163737 119.552567,376.557786 103.907397,400.594925 Z M103.243884,289.743389 C103.640593,289.448402 104.183784,289.448402 104.580493,289.743389 L120.220392,301.372985 C120.450876,301.544369 120.738393,301.620656 121.023524,301.58608 C121.637585,301.511617 122.075015,300.953458 122.000552,300.339397 L118.853093,274.383927 C118.819069,274.103351 118.892381,273.820285 119.058327,273.591499 L132.668898,254.826841 C132.762371,254.697971 132.827297,254.550654 132.859346,254.394713 C132.983871,253.788818 132.593643,253.196696 131.987748,253.072171 L113.736057,249.321049 C113.349917,249.241689 113.033932,248.965172 112.904057,248.59297 L104.96966,225.854155 C104.857142,225.531693 104.603641,225.278192 104.281179,225.165674 C103.697153,224.961886 103.058505,225.27013 102.854717,225.854155 L94.9203201,248.59297 C94.7904453,248.965172 94.4744599,249.241689 94.0883204,249.321049 L75.8366289,253.072171 C75.6806878,253.10422 75.5333711,253.169146 75.404501,253.26262 C74.9037878,253.625802 74.792297,254.326128 75.1554794,254.826841 L88.7660508,273.591499 C88.9319959,273.820285 89.005308,274.103351 88.9712843,274.383927 L85.8238258,300.339397 C85.7892497,300.624529 85.8655368,300.912046 86.036921,301.14253 C86.4060153,301.638901 87.1076138,301.742079 87.6039851,301.372985 L103.243884,289.743389 Z" id="Combined-Shape-Copy-3" stroke="none" fill="url(#linearGradient-6)" fill-rule="nonzero" transform="translate(103.383994, 305.829002) rotate(-74.000000) translate(-103.383994, -305.829002) "></path>
                    <ellipse id="Oval" stroke="none" fill="url(#linearGradient-7)" fill-rule="nonzero" opacity="0.5" style="mix-blend-mode: multiply;" cx="296.6732" cy="322.825049" rx="49.8584495" ry="7.34203875"></ellipse>
                    <path d="M350.578023,226.202434 C350.677332,226.518055 350.813883,226.9978 350.950434,227.578543 C351.541296,230.302808 351.845077,233.083344 351.856635,235.873071 C352.042841,239.950898 351.856635,238.713662 351.993186,240.784138 C352.129737,242.854614 352.353184,244.45797 351.558706,246.086576 C351.321579,246.571663 351.020915,247.021837 350.664919,247.42481 L336.811213,260.59253 L333.236063,258.155934 L346.642875,243.271234 L344.395993,226.151935 L347.623558,225.28082 L350.578023,226.202434 Z" id="Shape" stroke="none" fill="#0057D8" fill-rule="nonzero"></path>
                    <path d="M346.355057,248.409662 C346.072144,247.169491 345.620715,245.974809 345.013606,244.85959 C344.483252,245.027232 343.944208,245.165427 343.398896,245.273556 C342.790274,245.399 342.318282,245.436634 342.069865,245.474267 C340.641468,245.687522 337.921302,246.013677 330.593003,246.578176 C330.097709,247.204049 329.63742,247.857377 329.214289,248.535106 C327.864152,250.71009 326.881903,253.096877 326.30781,255.597617 C321.339472,276.245739 320.979267,276.923138 320.979267,276.923138 C320.2837,280.887176 319.617114,284.909755 318.979511,288.990874 C317.737426,297.056938 315.986087,312.336047 315.042102,320.063412 C315.225619,320.598845 315.547187,321.07517 315.973666,321.443299 C316.398245,321.789654 316.902258,322.022598 317.439326,322.120698 C319.327294,322.384131 322.606398,312.37368 322.606398,312.37368 C324.531451,305.778212 325.694324,298.979913 326.071814,292.114435 C326.092867,290.388754 325.972387,288.664275 325.71161,286.958677 C327.856276,282.852469 330.000942,278.716991 332.145608,274.552242 C333.801721,271.31578 335.457834,268.087682 337.113947,264.867946 C337.072544,272.603675 337.072544,280.427214 337.113947,288.338564 C337.188472,297.989407 337.337523,307.506444 337.561098,316.889673 C337.823122,317.119456 338.133034,317.286673 338.46782,317.378905 C339.019281,317.490612 339.591379,317.429331 340.107371,317.203284 C340.959062,316.969884 341.729166,316.500617 342.330703,315.848486 C343.430554,310.017338 344.16896,304.122543 344.541614,298.198481 C345.07571,289.818806 344.305618,290.408394 344.765189,283.634405 C345.473177,273.347977 348.180922,258.69609 347.460513,253.941753 C347.42325,253.151454 346.777366,250.140793 346.355057,248.409662 Z" id="Shape" stroke="none" fill="#72594B" fill-rule="nonzero"></path>
                    <path d="M338.367026,206.38761 C337.823754,205.531664 337.132318,204.247744 337.576813,203.593197 C338.021307,202.93865 338.934991,203.416973 341.280936,203.517672 C344.626994,203.643547 344.985059,203.064524 346.701303,203.618372 C348.049323,204.015383 349.233046,204.850838 350.072055,205.997399 C351.143572,207.855727 351.373232,210.096042 350.701756,212.140073 C350.00931,214.525048 348.450493,216.550894 346.343238,217.804424 L344.51587,218.987644 L339.367139,209.949857 L338.367026,206.38761 Z" id="Shape" stroke="none" fill="#172B4D" fill-rule="nonzero"></path>
                    <path d="M311.482412,199.208252 C310.146125,198.135647 309.550484,197.450684 309.695488,197.153364 C309.912994,196.707383 310.130501,196.004037 310.130501,195.575436 C310.130501,195.289701 310.130501,194.617876 310.130501,193.559961 C309.683756,192.817767 309.326378,192.632219 309.058367,193.003316 C308.790357,193.374412 308.654244,193.795347 308.650027,194.266118 C307.786418,193.200365 307.163138,192.348444 306.780187,191.710355 C306.397237,191.072266 305.471391,190.875217 304.00265,191.119207 L303.109802,192.460727 C302.667456,192.722778 302.446283,193.089189 302.446283,193.559961 C302.446283,194.030732 302.842433,194.702557 303.634732,195.575436 L305.218321,197.860288 L306.780187,199.77248 L307.154155,200.25146 L311.482412,199.208252 Z" id="Path-2" stroke="none" fill="#72594B" fill-rule="evenodd"></path>
                    <path d="M344.002305,222.833474 L337.084785,222.833474 C338.140119,220.257411 338.402117,217.400736 337.834286,214.661353 L342.060976,214.442572 C342.060976,214.699962 342.196132,215.086046 342.306714,215.536478 C342.357145,215.997535 342.513101,216.439024 342.761329,216.823426 C343.240518,217.299597 344.162035,217.016468 344.432346,216.926382 L344.002305,222.833474 Z" id="Shape" stroke="none" fill="#543E36" fill-rule="nonzero"></path>
                    <path d="M345.777332,283.425174 C345.777332,283.286726 345.777332,283.160863 345.777332,283.022415 C346.066869,278.906718 346.671118,274.111365 347.250191,269.479633 C348.118799,262.557208 348.949642,256.024956 348.509044,253.054606 C348.383158,252.223915 347.715966,249.140289 347.325722,247.453734 C347.184203,246.842772 347.003392,246.241579 346.784415,245.653904 C346.531018,244.973954 346.228081,244.313503 345.878041,243.677866 L345.563327,243.111486 L344.946489,243.300279 C344.437816,243.458306 343.920923,243.588556 343.3981,243.690452 C342.957501,243.778556 342.592434,243.828901 342.328075,243.854073 L342.088893,243.854073 C340.729331,244.055453 338.047974,244.382695 330.520032,244.949075 L330.180142,244.949075 L329.966137,245.213386 C329.446784,245.861799 328.963494,246.538282 328.518456,247.239768 C327.102154,249.494886 326.072514,251.970674 325.472031,254.564953 C320.977926,273.041536 320.222614,275.533609 320.109317,275.835679 L320.109317,275.89861 L320.109317,276.024472 C319.819781,277.69844 319.530245,279.397581 319.240708,281.058963 C321.494056,282.909139 324.842605,283.43776 328.153389,283.223795 C329.739544,280.2031 331.338287,277.169819 332.924442,274.111365 L336.424054,267.352561 C336.424054,272.387052 336.424054,277.421543 336.424054,282.367931 C339.378847,283.598505 342.622335,283.965131 345.777332,283.425174 L345.777332,283.425174 Z" id="Shape" stroke="none" fill="#0057D8" fill-rule="nonzero"></path>
                    <path d="M345.140548,258.35007 C346.288457,256.96117 347.07263,255.304986 347.421519,253.532631 C347.725621,251.489792 347.594624,249.405195 347.037225,247.417228 C346.892654,246.812809 346.714693,246.216983 346.504172,245.632529 C346.254639,244.958296 345.956321,244.303397 345.611618,243.673104 L345.301704,243.111486 L344.694271,243.298692 C344.193354,243.455391 343.684343,243.584546 343.169492,243.685585 C342.735611,243.772947 342.37611,243.822869 342.115782,243.84783 L341.880247,243.84783 C340.541416,244.047517 337.900944,244.372007 330.487788,244.933626 L330.15308,244.933626 L329.942339,245.195715 C329.430904,245.838677 328.954983,246.509472 328.516732,247.205061 C325.963036,251.273676 325.070482,256.652734 323.830824,261.282967 C322.896948,264.752522 322.025055,268.238718 321.215145,271.741554 C321.0168,272.615183 318.735828,280.228235 319.343261,280.777373 C321.562249,282.611994 324.85974,283.136171 328.120041,282.924004 C329.68201,279.928705 331.256376,276.920925 332.818346,273.888185 C334.715023,270.218943 336.326578,266.749388 339.363741,263.903854 C341.419713,262.195106 343.350343,260.33901 345.140548,258.35007 L345.140548,258.35007 Z" id="Shape" stroke="none" fill="url(#linearGradient-8)" fill-rule="nonzero"></path>
                    <path d="M338.151705,206.401292 L337.185207,208.772978 L334.285714,210.660126 L334.998506,211.935226 L334.744801,216.640346 C335.613323,217.310223 336.569745,217.842867 337.583888,218.22147 L337.753025,218.22147 C338.550385,218.47649 340.169269,218.973779 340.761249,218.297976 C340.895423,218.118031 340.990303,217.909042 341.039117,217.685928 C341.284264,216.730993 341.386176,215.741422 341.341147,214.753197 C341.341147,214.039141 341.413635,213.478097 341.474041,212.776792 C341.606934,211.208419 341.643178,211.34868 341.631097,211.080909 C341.546528,209.805809 340.567949,208.862235 339.734345,207.765649 C339.285893,207.217287 338.750336,206.755596 338.151705,206.401292 L338.151705,206.401292 Z" id="Shape" stroke="none" fill="#72594B" fill-rule="nonzero"></path>
                    <path d="M316.659481,218.479078 C320.326947,222.954189 324.662728,226.843116 329.515554,230.010178 C329.515554,232.054611 329.415312,234.211238 329.252418,236.467593 C328.977948,240.136439 328.49265,243.78665 327.798905,247.400322 C334.258038,250.349096 341.563323,250.90612 348.398695,248.971045 C348.529268,243.685879 349.243611,238.431023 350.528843,233.301216 C350.846277,232.029678 351.188772,230.808005 351.556327,229.636196 C352.198845,227.60845 351.423816,225.401808 349.651723,224.213463 L349.651723,224.213463 L348.899906,223.752219 C348.899906,223.752219 348.072907,223.253577 347.208318,222.829731 C343.587065,221.034619 336.958544,220.411317 336.958544,220.411317 C334.782688,220.677728 332.574784,220.482287 330.480386,219.837878 C327.047264,218.730506 324.086742,216.509426 322.072564,213.530055 L310.607352,197.660769 L305.595238,198.907375 C306.961039,201.824431 308.514795,204.89108 310.294095,208.057458 C312.374123,211.884536 314.529332,215.312701 316.659481,218.479078 Z" id="Shape" stroke="none" fill="url(#linearGradient-9)" fill-rule="nonzero"></path>
                    <path d="M342.670917,318.629598 L337.434669,318.629598 C337.506727,317.664647 337.566776,316.648232 337.578786,315.567487 C337.578786,314.898454 337.578786,314.250865 337.578786,313.624719 C339.218699,313.305474 340.898896,313.305474 342.53881,313.624719 C342.339856,315.27352 342.38851,316.945807 342.682927,318.578134 L342.670917,318.629598 Z" id="Shape" stroke="none" fill="#DFE1E5" fill-rule="nonzero"></path>
                    <path d="M319.801843,323.17467 L313.992451,323.17467 C313.992451,322.155397 314.969485,319.03139 315.009094,317.998879 L318.177854,317.614997 L320.990128,317.231115 C320.739268,318.170964 320.501611,319.163763 320.277157,320.209511 C320.052703,321.255259 319.960281,322.221583 319.801843,323.17467 Z" id="Shape" stroke="none" fill="#DFE1E5" fill-rule="nonzero"></path>
                    <path d="M338.387597,318.33466 L338.387597,318.33466 C338.286871,318.33466 337.997286,317.450212 337.594384,317.268119 C336.813762,316.903935 337.51884,319.310155 335.793916,320.870946 C335.161323,321.446609 334.425568,321.888504 333.628319,322.171605 C333.372111,322.295188 333.216691,322.569683 333.238008,322.860955 L333.238008,323.524291 L343.726046,323.524291 C343.783154,321.740895 343.465282,319.96591 342.794335,318.321654 L338.387597,318.33466 Z" id="_Clipping_Path_15" stroke="none" fill="#42526E" fill-rule="nonzero"></path>
                    <g id="Group" stroke="none" stroke-width="1" fill="none" fill-rule="evenodd" transform="translate(339.184088, 320.727324)">
                        <path d="M2.94589484,0.160825611 C1.37986361,0.167237737 0.106067342,1.35201915 0.0778650618,2.82843302 L3.0237599,2.82843302 L3.0237599,0.173062342 L2.94589484,0.160825611 Z" id="Shape" fill="#B3BAC5" fill-rule="nonzero"></path>
                        <path d="M2.73825467,0.160825611 C4.3042859,0.167237737 5.57808217,1.35201915 5.60628445,2.82843302 L2.66038961,2.82843302 L2.66038961,0.173062342 L2.73825467,0.160825611 Z" id="Shape" fill="#B3BAC5" fill-rule="nonzero"></path>
                    </g>
                    <path d="M315.039112,322.530111 L315.039112,322.530111 C314.93992,322.530111 314.654741,321.645662 314.25797,321.46357 C313.489226,321.099386 312.224519,323.505605 309.967885,325.066397 C309.104353,325.659551 308.153358,326.099018 307.153292,326.367056 C306.851987,326.445432 306.641553,326.730784 306.64493,327.056405 L306.64489,327.719742 L320.283927,327.719742 C320.340166,325.936346 320.027132,324.161361 319.366394,322.517104 L315.039112,322.530111 Z" id="_Clipping_Path_16" stroke="none" fill="#42526E" fill-rule="nonzero"></path>
                    <path d="M320.216376,324.573154 C318.728396,324.579877 317.518086,325.822111 317.491289,327.370121 L320.29036,327.370121 L320.29036,324.585984 L320.216376,324.573154 Z" id="Shape" stroke="none" fill="#B3BAC5" fill-rule="nonzero"></path>
                    <path d="M334.816787,212.567222 C334.422353,212.862653 334.254658,213.379187 334.398633,213.855218 C335.046194,214.191153 335.762385,214.367634 336.489402,214.370417 C336.489402,214.615136 336.489402,214.937135 336.37536,215.336414 C336.235975,216.36681 336.159947,216.46985 336.071248,216.52137 C335.741794,216.701689 335.070213,216.315291 334.804115,215.774332 C334.712488,215.577403 334.669017,215.36089 334.677402,215.143214 C334.339509,215.434688 334.100171,215.826637 333.99315,216.263771 C333.860058,216.820598 333.961064,217.40861 334.27192,217.886646 C334.791312,218.554177 335.528356,219.010994 336.350017,219.174642 L336.641458,219.174642 C338.115046,219.321887 339.596646,219.369218 341.076423,219.316321 L341.076423,219.316321 C342.444926,218.878402 342.026772,214.164337 341.367863,209.888191 L339.492507,208.149396 C339.676245,209.244299 339.641773,210.365561 339.391136,211.446666 C339.188395,212.296743 339.036339,212.953621 338.516814,213.19834 C337.99729,213.44306 337.465094,213.19834 336.159947,212.837701 C335.807193,212.738667 335.446921,212.669734 335.082885,212.631622 L334.816787,212.567222 Z" id="Shape" stroke="none" fill="#172B4D" fill-rule="nonzero"></path>
                    <path d="M195.008176,331.215951 C159.826601,302.403175 120.582804,203.32235 120.582804,162.249245 C120.582804,121.17614 153.904178,87.879809 195.008176,87.879809 C236.112174,87.879809 269.433548,121.17614 269.433548,162.249245 C269.433548,203.32235 222.679368,301.180316 195.008176,331.215951 Z M194.365557,192.422374 C194.773205,192.208221 195.260096,192.208221 195.667744,192.422374 L225.054054,207.860059 C225.326544,208.003209 225.638616,208.052566 225.941984,208.000496 C226.704038,207.869695 227.21577,207.145892 227.08497,206.383838 L221.473196,173.689279 C221.395204,173.234892 221.545919,172.771236 221.876178,172.449555 L245.647256,149.295895 C245.86798,149.080905 246.011613,148.799102 246.055888,148.494177 C246.166991,147.729002 245.636761,147.018639 244.871586,146.907536 L212.018911,142.137351 C211.563004,142.071153 211.168844,141.784901 210.964835,141.371846 L196.271896,111.623074 C196.135678,111.347274 195.912418,111.124013 195.636617,110.987795 C194.943364,110.645397 194.103803,110.929821 193.761405,111.623074 L179.068466,141.371846 C178.864458,141.784901 178.470297,142.071153 178.01439,142.137351 L145.161715,146.907536 C144.856789,146.951811 144.574987,147.095444 144.359996,147.316168 C143.820503,147.870047 143.832165,148.756402 144.386045,149.295895 L168.157123,172.449555 C168.487382,172.771236 168.638097,173.234892 168.560105,173.689279 L162.948332,206.383838 C162.896261,206.687205 162.945619,206.999277 163.088768,207.271768 C163.448357,207.956261 164.294754,208.219649 164.979247,207.860059 L194.365557,192.422374 Z" id="Combined-Shape-Copy" stroke="none" fill="url(#linearGradient-10)" fill-rule="nonzero"></path>
                    <path d="M227.628748,64.3371102 C223.425049,59.9968631 221.387075,57.6957661 221.514828,57.4338192 C221.706457,57.040899 221.898085,56.4212333 221.898085,56.0436246 C221.898085,55.7918854 221.898085,55.1999906 221.898085,54.2679402 C221.504491,53.6140488 221.189633,53.450576 220.953509,53.7775217 C220.717385,54.1044674 220.597465,54.4753211 220.593751,54.8900827 C219.835024,53.962243 219.266011,53.2253526 218.88671,52.6794113 C218.587889,52.2493072 218.17566,51.9575652 217.836292,51.846599 C217.429558,51.7136057 217.623169,52.1052244 217.323275,52.1665344 C217.221861,52.1872676 216.918492,52.155289 216.83503,52.3121403 C216.751568,52.4689916 216.811518,52.6815271 216.594056,52.7650057 C216.307897,52.8748552 216.315761,52.6803855 216.131288,52.7810209 C216.008306,52.8481111 215.910329,53.0322409 215.837356,53.3334103 C215.478737,53.4912659 215.387727,53.8042154 215.564326,54.272259 C215.829224,54.9743244 215.836531,54.9434214 216.417956,56.0402946 C216.805573,56.7715434 217.189698,57.4436576 217.570331,58.0566373 L218.669683,59.7097117 L226.170188,69.9579376 L227.628748,64.3371102 Z" id="Path-2-Copy" stroke="none" fill="#CE9E79" fill-rule="evenodd" transform="translate(221.552834, 60.888583) scale(-1, 1) rotate(-27.000000) translate(-221.552834, -60.888583) "></path>
                    <path d="M190.679384,34.7094636 C192.463792,33.8703735 196.011614,36.1778714 197.817015,38.5692783 C199.055746,39.9768955 199.793835,41.7543538 199.916318,43.6247964 C199.916318,45.2819994 199.244541,46.9182252 200.231214,48.302724 C200.529926,48.6148751 200.77151,48.9769785 200.944977,49.3725639 C201.227817,50.3690636 201.008621,51.4407539 200.357172,52.2464476 C200.084262,52.5820837 199.433479,53.2114013 195.906649,53.5050828 L195.255865,53.5050828 C192.976174,53.6545683 190.938252,52.0936346 190.490447,49.8550407 C188.181214,38.5273238 189.230865,35.401713 190.679384,34.7094636 Z" id="Shape" stroke="none" fill="#091E42" fill-rule="nonzero"></path>
                    <path d="M185.284175,48.0509969 L183.961614,53.0855378 L187.425465,59.0850323 L195.318844,58.4347374 L195.318844,53.5680146 C194.656131,53.6147064 193.990991,53.5217997 193.366492,53.2953103 C193.011648,53.1983989 192.696017,52.9930262 192.463792,52.7079472 C192.269654,52.4020383 192.181168,52.0409935 192.211876,51.6800618 C192.22447,50.6971293 192.30161,49.7160824 192.442799,48.7432463 L185.284175,48.0509969 Z" id="Shape" stroke="none" fill="#CE9E79" fill-rule="nonzero"></path>
                    <path d="M163.661353,93.2989329 L167.398113,93.6345689 C168.503746,93.802387 169.084553,94.0680988 169.140534,94.4317046 C169.196516,94.7953103 168.034901,95.5714687 165.655691,96.7601797 C165.113872,97.3296472 164.338661,97.6162596 163.556388,97.5363381 C163.359809,97.5104645 163.168531,97.4538321 162.989576,97.3685201 L164.585046,95.9840213 C164.620455,95.8893245 164.620455,95.7850366 164.585046,95.6903398 C164.144193,95.1659085 161.876945,95.6903398 160.38644,96.8021342 C160.134524,96.9909295 159.504733,97.4314518 159.0009,97.2426566 C158.886992,97.1982567 158.785972,97.1261542 158.706998,97.032884 L160.029559,95.7532716 L159.084872,96.1308621 C158.476074,96.3825892 158.224158,96.4664982 157.993235,96.3616119 C157.880398,96.3049978 157.785813,96.2177541 157.720325,96.1098849 L160.17651,94.3058411 C160.346477,94.1240063 160.536643,93.9621347 160.743322,93.8233642 C161.074326,93.6593829 161.428191,93.5462313 161.792973,93.4877282 C162.408399,93.3659584 163.03399,93.302744 163.661353,93.2989329 Z" id="Shape" stroke="none" fill="#D4B696" fill-rule="nonzero"></path>
                    <path d="M195.339837,68.5247964 C195.498183,69.7933578 194.607531,69.9908309 195.318844,71.0534111 C195.852507,71.8244333 202.730656,71.2513528 203.218595,70.6840705 C203.543887,70.3058823 203.836215,67.9539676 204.095579,63.6283264 C203.257436,61.8938317 201.62451,62.4969253 200.585905,61.4567981 C200.438954,60.1142538 199.307191,57.603235 198.173897,55.7706262 C197.431679,54.8240789 196.444312,54.0986194 195.318844,53.6729009 C195.318844,58.6235327 195.325842,63.5741646 195.339837,68.5247964 Z" id="Shape" stroke="none" fill="#0065FF" fill-rule="nonzero"></path>
                    <path d="M246.646806,113.185369 L245.051336,112.325302 C244.190621,112.639961 242.679123,113.290256 238.543496,111.255462 C236.989158,110.479272 235.643149,109.342857 234.617799,107.941056 L228.31989,109.766077 L230.60813,117.737433 L233.274245,116.961275 C233.161808,115.980914 233.748359,115.05479 234.683162,114.736691 C235.617966,114.418591 236.648255,114.79453 237.157956,115.639708 C241.125639,114.590845 242.616144,114.255209 246.646806,113.185369 Z" id="Shape" stroke="none" fill="#172B4D" fill-rule="nonzero"></path>
                    <path d="M220.237573,132.589329 L219.628775,130.869194 C218.789053,130.533558 217.214576,129.988149 215.430168,125.70879 C214.80218,124.087593 214.571832,122.339699 214.758391,120.611317 L209.027294,117.737433 L205.374506,125.184358 L207.872677,126.401039 C208.451908,125.605834 209.506271,125.319532 210.408606,125.712433 C211.310941,126.105334 211.818939,127.071929 211.63043,128.037265 C215.325203,129.946195 216.542799,130.680399 220.237573,132.589329 Z" id="Shape" stroke="none" fill="#172B4D" fill-rule="nonzero"></path>
                    <path d="M234.617799,107.920079 L228.31989,109.7451 C225.222652,105.77189 222.640998,101.423027 220.63644,96.8021342 L220.363531,96.1518394 L220.720412,94.5365908 C221.176851,93.1051531 220.910821,91.541448 220.006649,90.3411401 C219.467919,89.6683514 218.734946,89.1776284 217.907346,88.9356641 L201.763705,94.9561359 C200.753654,95.396232 199.707011,95.7471907 198.635743,96.0049986 C193.366492,97.2636338 188.454123,96.0049986 186.039925,92.732547 C184.775047,90.9879781 184.145393,88.8635686 184.255517,86.7120753 C188.423019,85.0764097 192.693857,83.7169355 197.040273,82.6424881 C203.90775,80.8588909 210.944365,79.8041919 218.033304,79.4959 C221.211309,79.0299109 224.307798,80.7488897 225.590796,83.6913507 L234.617799,107.920079 Z" id="Shape" stroke="none" fill="url(#linearGradient-11)" fill-rule="nonzero"></path>
                    <path d="M220.678426,94.5365908 L220.321545,96.1518394 L214.863357,120.611317 L209.027294,117.737433 C207.648516,110.334964 208.503466,102.689999 211.483479,95.7742488 L198.656736,96.0259758 C199.728004,95.768168 200.774647,95.4172092 201.784698,94.9771132 L217.928339,88.9566414 C218.755939,89.1986057 219.488912,89.6893286 220.027642,90.3621174 C220.903357,91.5682334 221.145498,93.1214543 220.678426,94.5365908 Z" id="Shape" stroke="none" fill="#0065FF" fill-rule="nonzero"></path>
                    <path d="M175.438444,67.3710475 C175.879297,73.8320416 176.404123,81.5306936 177.180865,90.4460264 C184.737063,90.4478816 192.094817,88.029 198.173897,83.54451 C198.831678,83.0410559 199.447474,82.5166245 200.021283,81.971216 L202.120587,81.5306936 C200.852564,79.7361657 199.907697,77.7342697 199.328513,75.6151081 C198.849955,74.0824992 198.643905,72.47794 198.719715,70.8742488 C198.929646,67.6017972 200.336179,67.2871384 200.294193,64.7279135 C200.294193,64.1195732 200.399158,63.196574 197.859001,58.4347374 C197.22921,57.239034 196.347503,55.6237855 195.213879,53.7358326 L193.114576,53.2533558 C193.996283,56.0503229 194.052265,57.7424881 193.28252,58.3298512 C192.134901,59.1549565 189.104907,57.3439202 184.192538,52.8967425 C181.517366,53.3503856 179.091243,54.7410115 177.34881,56.8194889 C175.102597,59.8475883 174.396336,63.7484904 175.438444,67.3710475 Z" id="Shape" stroke="none" fill="#0057D8" fill-rule="nonzero"></path>
                    <path d="M184.240321,61.1941341 L176.808788,70.8017162 L169.146331,94.8626261 C168.257113,94.6999839 167.425304,94.309689 166.732133,93.7298544 C166.591129,89.5228832 166.815898,85.3116218 167.40391,81.1435023 C168.067882,76.3160138 169.279271,71.5796676 171.014711,67.0258106 C172.373285,62.7266915 174.982337,58.9292467 178.509223,56.1176387 C179.660545,54.96519 181.424018,54.6856185 182.875774,55.4253894 C183.900709,55.93687 184.645548,56.8765839 184.909075,57.9906678 C185.172602,59.1047518 184.927624,60.2782469 184.240321,61.1941341 Z" id="Shape" stroke="none" fill="#D4B696" fill-rule="nonzero"></path>
                    <path d="M194.143235,36.7023027 C194.921057,38.5609437 195.409555,40.5276146 195.591754,42.5339792 C195.591754,42.7857063 195.591754,42.8905925 195.948635,43.2891603 C196.305517,43.6877282 196.872329,43.9814097 196.662398,44.2750913 C196.452468,44.5687728 195.63374,44.7785454 195.465796,45.0512496 L194.542102,49.876018 L192.442799,49.876018 L185.347154,50.211654 C185.515099,49.9809042 189.902642,44.5058411 190.007607,44.1492277 C190.112573,43.7926144 190.280517,43.0164561 190.763357,42.9535243 C191.246196,42.8905925 193.135569,39.4713002 193.492451,39.0517551 C193.796718,38.6953656 193.960872,38.2405547 193.954297,37.7721427 C194.080256,37.1847796 194.143235,36.7023027 194.143235,36.7023027 Z" id="Shape" stroke="none" fill="#D4B696" fill-rule="nonzero"></path>
                    <path d="M194.332172,35.6953946 C194.204485,37.6973386 193.47254,39.6135936 192.232869,41.191435 C190.312123,43.8352664 189.410209,47.0826937 189.692712,50.3375176 C189.85085,51.4445814 189.520715,52.5657626 188.787766,53.410838 C188.054816,54.2559134 186.991105,54.7418062 185.87198,54.7427408 C184.602867,54.8091661 183.330725,54.6961718 182.093235,54.4071047 C180.723985,54.0821969 179.455353,53.426749 178.398461,52.4981747 C176.707072,50.5069396 175.943692,47.8905138 176.299158,45.3029767 C176.424434,42.7085323 177.275386,40.2012004 178.755343,38.0658242 C179.21732,37.4056427 179.7372,36.7878712 180.308827,36.2198259 C182.681039,33.9542825 189.734698,31.4789666 194.332172,35.6953946 Z" id="Shape" stroke="none" fill="#091E42" fill-rule="nonzero"></path>
                    <path d="M183.184872,55.3301039 C181.451632,54.6602232 179.496053,54.9212985 177.999593,56.0223533 C174.344233,58.6022291 171.602507,62.274703 170.169193,66.5109801 C169.473606,68.0850067 168.884478,69.7038901 168.405778,71.3567256 C170.694019,72.7202471 174.703688,74.7130862 176.802991,75.6780399 L176.802991,75.6780399 C177.49808,73.1765858 178.53661,70.7834097 179.888966,68.5667509 L184.402468,61.1617804 C185.124188,60.2623153 185.405753,59.087566 185.170117,57.9589856 C184.934481,56.8304052 184.206315,55.8661608 183.184872,55.3301039 L183.184872,55.3301039 Z" id="Shape" stroke="none" fill="#0065FF" fill-rule="nonzero"></path>
                    <path d="" id="Path-3" stroke="#979797" stroke-width="1.25" fill="none"></path>
                </g>
            </g>
        </g>
    </g>
</svg>